<?xml version="1.0" encoding="utf-8"?>
<!-- Generator: Adobe Illustrator 22.1.0, SVG Export Plug-In . SVG Version: 6.00 Build 0)  -->
<svg version="1.1" id="Layer_1" xmlns="http://www.w3.org/2000/svg" xmlns:xlink="http://www.w3.org/1999/xlink" x="0px" y="0px"
	 viewBox="0 0 328.4 85.8" style="enable-background:new 0 0 328.4 85.8;" xml:space="preserve">
<style type="text/css">
	.st0{fill:#FFFFFF;}
</style>
<g>
	<path class="st0" d="M1.4,13.2h9.8l5.2,17.6c0.5,1.6,0.7,2.7,0.9,4h0.1c0.2-1.3,0.4-2.4,0.9-4l5.4-17.6H33l-10.5,29H12.3L1.4,13.2z
		"/>
	<path class="st0" d="M47.1,18.4c-3.4,0-5.3,2.8-5.3,6.4H52C52.1,20.9,50.5,18.4,47.1,18.4 M61,29.7H41.8c0,3.8,2.4,6.6,6.2,6.6
		c2.7,0,4.6-1.5,5.9-3.9l6.9,3.1c-2.4,4.7-7.1,7.5-12.9,7.5c-9.9,0-15.1-5.9-15.1-15.2c0-9.3,5.6-15.2,14.5-15.2
		c9.1,0,13.8,5.9,13.8,14.7C61.1,28.1,61,28.9,61,29.7"/>
	<path class="st0" d="M86.7,12.7c2.7,0,4.2,0.4,5.1,0.8v7.9c-1.1-0.3-3.4-0.8-6-0.8c-6,0-11.3,3.2-11.3,11.6v10.2h-9v-29h8.7v8.4
		C76,15.9,80.6,12.7,86.7,12.7"/>
	<path class="st0" d="M113.3,9.5h-10.2V0.3h10.2V9.5z M95.5,35.8h8.8v-16h-7.9v-6.5h16.8v22.5h9.2v6.5H95.5V35.8z"/>
	<path class="st0" d="M174,9.5h-10.2V0.3H174V9.5z M156.2,35.8h8.8v-16h-7.9v-6.5h16.8v22.5h9.2v6.5h-26.9V35.8z M151,19.6h-10.1
		v22.6h-9V19.6h-8.7v-6.4h8.7V11c0-7.7,4.9-11,13.5-11c1.9,0,4.1,0.2,5.6,0.5v6.6c-1.2-0.2-2.5-0.3-4.5-0.3c-4.1,0-5.6,1.2-5.6,4.5
		v2H151V19.6z"/>
	<path class="st0" d="M185.2,27.6c0-8.7,5.2-15.1,15.1-15.1c7.4,0,12.5,3.8,13.6,10.2l-8.8,1.6c-0.5-3.4-2.3-5.2-5.2-5.2
		c-3.7,0-5.6,3.3-5.6,8.1c0,5.2,1.9,8.7,5.7,8.7c3,0,4.6-2,5.1-5.4l8.7,1.9C213,38,208.4,43,200.1,43
		C190.6,43,185.2,36.2,185.2,27.6"/>
	<path class="st0" d="M230.4,29.4c-3.8,0.7-5.5,1.9-5.5,4.1c0,2.1,1.5,3.5,3.9,3.5c3.2,0,5.3-2.3,5.3-5.9v-2.3L230.4,29.4z
		 M243.8,42.3H235c-0.2-1.9-0.4-3.5-0.5-5c-1.5,3.5-4.7,5.7-9.5,5.7c-5.6,0-9.4-3.4-9.4-8.4c0-2.8,1-5,3.1-6.4
		c1.8-1.3,4.7-2.3,8.9-2.8l6.2-0.9v-1.3c0-3.1-1.2-4.6-3.8-4.6c-2.7,0-4.2,1.4-4.4,4.2h-9.3c0.6-6.5,5.6-10.2,14-10.2
		c8.6,0,12.7,3.8,12.7,11.8v9.8C243,37.7,243.3,40.5,243.8,42.3"/>
	<path class="st0" d="M259.6,19c-3.8,0-5.5,3.4-5.5,8.7c0,5.4,2,8.8,5.3,8.8c3.3,0,5.3-3.1,5.3-7.5v-2.3
		C264.8,22.2,262.7,19,259.6,19 M273.6,0.2v42.1h-8.5v-5.1c-1.3,3.1-4,5.8-8.9,5.8c-6.9,0-11.4-6-11.4-15.1c0-9.1,4.5-15.3,12-15.3
		c3.8,0,6.6,2,7.8,4.7V0.2H273.6z"/>
	<path class="st0" d="M323.6,8.5h-43.2c-0.3,0-0.6,0.3-0.6,0.6v28.5c0,0.3,0.3,0.6,0.6,0.6h5.2v7.6c0,0.2,0.1,0.4,0.3,0.5
		c0.1,0,0.2,0.1,0.2,0.1c0.1,0,0.3,0,0.4-0.1l10-8h27.1c0.3,0,0.6-0.3,0.6-0.6V9.1C324.1,8.8,323.9,8.5,323.6,8.5z M304,32.2h-18.7
		v-2.1H304V32.2z M312.3,26.8h-27v-2.1h27V26.8z M318.6,21.4h-33.3v-2.1h33.3V21.4z M318.6,16h-33.3v-2.1h33.3V16z"/>
	<path class="st0" d="M323.6,8.5h-43.2c-0.3,0-0.6,0.3-0.6,0.6v28.5c0,0.3,0.3,0.6,0.6,0.6h5.2v7.6c0,0.2,0.1,0.4,0.3,0.5
		c0.1,0,0.2,0.1,0.2,0.1c0.1,0,0.3,0,0.4-0.1l10-8h27.1c0.3,0,0.6-0.3,0.6-0.6V9.1C324.1,8.8,323.9,8.5,323.6,8.5z M304,32.2h-18.7
		v-2.1H304V32.2z M312.3,26.8h-27v-2.1h27V26.8z M318.6,21.4h-33.3v-2.1h33.3V21.4z M318.6,16h-33.3v-2.1h33.3V16z"/>
	<path class="st0" d="M3.8,55.6c-0.6,0-1.1,0.5-1.1,1.1V82c0,0.6,0.5,1.1,1.1,1.1h72.3c0.6,0,1.1-0.5,1.1-1.1V56.6
		c0-0.6-0.5-1.1-1.1-1.1H3.8z M76.1,85.8H3.8C1.7,85.8,0,84.1,0,82V56.6c0-2.1,1.7-3.8,3.8-3.8h72.3c2.1,0,3.8,1.7,3.8,3.8V82
		C80,84.1,78.3,85.8,76.1,85.8"/>
	<path class="st0" d="M14,74.7c1.7-1.2,3.8-3,5.5-4.7c1.5-1.5,2.1-2.7,2.1-4.1c0-1.4-0.7-2.1-1.9-2.1c-1.2,0-2,0.8-2,2.2
		c0,0.4,0,0.8,0.1,1.1l-3.7-0.4c-0.1-0.4-0.1-0.6-0.1-0.9c0-3,2.2-5,5.7-5c3.6,0,5.6,1.8,5.6,4.9c0,1.9-0.8,3.5-2.6,5.3
		c-1.2,1.2-2.5,2.2-4.2,3.4h7.1v3H14V74.7z"/>
	<path class="st0" d="M36.3,69.3c0-0.9,0-1.7-0.1-2.4l-4.8,6.4c0.4,1.3,1.2,1.7,2.2,1.7C35.4,75,36.3,73.7,36.3,69.3 M30.9,69.3
		c0,0.7,0,1.4,0.1,2l4.7-6.3c-0.4-1-1.1-1.4-2.1-1.4C31.9,63.5,30.9,64.9,30.9,69.3 M40,69.3c0,6-2.4,8.5-6.4,8.5
		c-4,0-6.4-2.5-6.4-8.5c0-6,2.4-8.5,6.4-8.5C37.6,60.8,40,63.3,40,69.3"/>
	<path class="st0" d="M53.4,74.4v3H41.7v-3h4.1v-8.2c-0.7,0.6-1.8,1-3.3,1h-0.8v-3.4h0.6c2.3,0,3.5-0.9,4.2-2.6h3v13.3H53.4z"/>
	<path class="st0" d="M58.4,65.4c0,1.2,0.9,1.8,2.3,2.2l0.9,0.2c1-0.5,1.4-1.2,1.4-2.2c0-1.3-0.9-2.1-2.4-2.1
		C59.3,63.4,58.4,64.1,58.4,65.4 M63.5,72.8c0-1.3-1-2-2.5-2.4l-1.2-0.3c-1.2,0.6-1.7,1.4-1.7,2.6c0,1.4,1.1,2.3,2.8,2.3
		C62.4,75,63.5,74.2,63.5,72.8 M67.2,72.9c0,2.9-2.6,4.9-6.5,4.9c-3.9,0-6.4-1.8-6.4-4.6c0-2,0.9-3.3,3-3.9c-1.6-0.7-2.6-1.9-2.6-4
		c0-2.7,2.4-4.5,5.9-4.5c3.4,0,5.8,1.5,5.8,4.1c0,1.6-0.8,2.8-2.6,3.4C65.9,69.1,67.2,70.4,67.2,72.9"/>
	<path class="st0" d="M327.8,71.2H88.7c-0.3,0-0.6-0.3-0.6-0.6V68c0-0.3,0.3-0.6,0.6-0.6h239.2c0.3,0,0.6,0.3,0.6,0.6v2.6
		C328.4,70.9,328.1,71.2,327.8,71.2"/>
</g>
</svg>
