<?xml version="1.0" encoding="utf-8"?>
<!-- Generator: Adobe Illustrator 22.1.0, SVG Export Plug-In . SVG Version: 6.00 Build 0)  -->
<svg version="1.1" id="Layer_1" xmlns="http://www.w3.org/2000/svg" xmlns:xlink="http://www.w3.org/1999/xlink" x="0px" y="0px"
	 viewBox="0 0 104.5 89.2" style="enable-background:new 0 0 104.5 89.2;" xml:space="preserve">
<path d="M103.1,0H1.4C0.6,0,0,0.6,0,1.4v67.2C0,69.4,0.6,70,1.4,70h12.2v17.9c0,0.5,0.3,1,0.8,1.2c0.2,0.1,0.4,0.1,0.6,0.1
	c0.3,0,0.6-0.1,0.9-0.3L39.4,70h63.8c0.8,0,1.4-0.6,1.4-1.4V1.4C104.5,0.6,103.9,0,103.1,0z M91.7,60.7h-79v-51h79V60.7z"/>
<path d="M89.2,57.8h-73v-46h73V57.8z M48.9,18h-5.3v35h5.3V18z M61,18h-5.3v35H61V18z"/>
</svg>
